<?xml version="1.0" standalone="no"?>
<!DOCTYPE svg PUBLIC "-//W3C//DTD SVG 20010904//EN"
 "http://www.w3.org/TR/2001/REC-SVG-20010904/DTD/svg10.dtd">
<svg version="1.0" xmlns="http://www.w3.org/2000/svg"
 width="260.000000pt" height="260.000000pt" viewBox="0 0 260.000000 260.000000"
 preserveAspectRatio="xMidYMid meet">
<metadata>
Created by potrace 1.11, written by Peter Selinger 2001-2013
</metadata>
<g transform="translate(0.000000,260.000000) scale(0.100000,-0.100000)"
fill="#000000" stroke="none">
<path d="M397 2533 c-3 -5 -6 -64 -7 -133 -2 -175 -14 -448 -25 -590 -12 -155
-19 -226 -30 -290 -2 -8 -6 -40 -10 -70 -3 -30 -8 -66 -10 -80 -2 -14 -6 -45
-10 -70 -3 -25 -8 -56 -10 -70 -2 -14 -7 -45 -10 -70 -3 -25 -8 -56 -10 -70
-2 -14 -7 -45 -10 -70 -4 -25 -13 -83 -21 -129 -8 -46 -14 -90 -14 -97 0 -7
114 -85 254 -174 139 -88 266 -175 281 -193 16 -18 50 -55 76 -84 43 -46 48
-56 47 -96 -1 -85 38 -151 105 -176 38 -15 576 -15 614 0 65 24 100 81 104
170 2 42 8 52 88 136 77 82 111 106 334 248 136 86 247 163 247 169 0 7 -4 37
-10 67 -5 30 -12 72 -15 94 -3 22 -18 130 -35 240 -16 110 -32 220 -35 245
-14 119 -17 137 -20 160 -4 23 -10 84 -20 210 -10 124 -22 410 -26 621 -1 48
-5 92 -9 99 -6 10 -27 6 -91 -17 -46 -17 -112 -34 -146 -38 -59 -6 -64 -9
-100 -53 -20 -26 -40 -49 -43 -52 -23 -20 -160 -219 -216 -314 l-69 -116 -240
0 -240 0 -83 138 c-46 75 -127 193 -181 262 l-97 124 -80 13 c-43 7 -108 24
-143 38 -70 27 -78 29 -84 18z m228 -98 l56 -7 76 -97 c90 -114 150 -202 227
-334 l57 -97 267 2 c255 3 267 4 277 23 62 120 190 312 292 437 53 65 56 67
111 74 31 3 87 17 125 30 l67 23 0 -107 c1 -59 3 -150 5 -202 9 -200 16 -337
20 -385 3 -27 7 -79 10 -115 3 -36 7 -76 10 -90 2 -14 7 -47 10 -75 3 -27 7
-61 10 -75 2 -14 7 -47 10 -75 7 -59 73 -511 80 -540 3 -16 -6 -27 -40 -48
l-44 -28 -33 24 c-54 40 -94 57 -138 57 -56 0 -100 -21 -178 -82 -212 -166
-220 -181 -228 -409 -2 -79 -9 -156 -15 -171 -13 -32 -49 -58 -82 -58 -47 0
-142 82 -217 187 l-31 43 50 0 c105 0 131 34 131 170 0 94 -8 122 -44 152 -30
25 -121 58 -160 58 -61 0 -139 -30 -178 -70 l-38 -38 0 -96 c0 -143 25 -176
130 -176 28 0 50 -3 50 -7 0 -9 -48 -70 -95 -122 -85 -94 -147 -120 -200 -85
-34 22 -44 62 -50 214 -9 227 -10 230 -172 366 -171 143 -250 158 -368 68
l-30 -22 -42 24 c-32 19 -41 30 -38 47 9 56 35 227 40 267 3 25 8 56 10 70 7
41 13 80 25 170 6 47 13 96 15 110 3 14 7 50 11 80 3 30 8 57 9 60 2 3 6 48
10 100 4 52 8 111 10 130 2 19 7 96 11 170 3 74 7 158 9 185 2 28 3 112 4 187
l1 137 69 -24 c39 -13 95 -27 126 -30z m2 -1683 c26 -17 62 -44 78 -59 17 -16
54 -48 83 -72 63 -52 79 -80 87 -152 4 -30 8 -64 10 -76 2 -13 0 -23 -4 -23
-4 0 -35 29 -69 65 -44 46 -109 95 -237 176 -96 61 -175 115 -175 119 0 5 19
21 43 35 56 35 116 30 184 -13z m1519 17 c79 -38 81 -36 -110 -158 -135 -85
-192 -128 -248 -187 l-74 -76 4 63 c8 138 21 156 212 308 95 75 142 86 216 50z
m-740 -119 c59 -33 64 -44 64 -142 0 -126 -3 -128 -170 -128 -168 0 -170 2
-170 130 0 85 2 93 26 115 61 56 173 68 250 25z m-50 -414 c21 -27 59 -69 84
-92 l45 -44 -182 0 -183 0 47 43 c25 23 66 68 91 100 24 32 48 55 51 50 4 -4
25 -30 47 -57z"/>
<path d="M635 2190 c-14 -23 -36 -172 -36 -248 -1 -131 43 -197 133 -204 l35
-2 -62 -90 c-127 -187 -162 -275 -152 -396 11 -140 69 -235 227 -370 35 -30
73 -63 84 -72 11 -10 37 -30 59 -45 l39 -27 18 24 c34 45 102 224 122 319 32
154 15 280 -67 496 -53 142 -204 399 -332 568 -44 57 -56 66 -68 47z m199
-314 c36 -58 52 -92 45 -97 -18 -11 -157 -1 -187 13 -42 20 -55 73 -48 193 9
160 9 160 77 63 31 -46 83 -123 113 -172z m122 -226 c47 -95 88 -214 108 -310
14 -68 16 -203 4 -215 -4 -4 -20 3 -36 16 -246 199 -392 321 -392 326 0 10
145 225 168 248 14 15 31 21 63 20 l44 0 41 -85z m-259 -289 l42 -35 -1 -65
c-2 -79 14 -116 61 -148 42 -29 82 -29 138 -2 l43 21 40 -32 c34 -27 39 -36
34 -58 -9 -35 -46 -133 -76 -201 l-24 -53 -90 73 c-166 136 -230 215 -258 319
-16 61 -14 169 3 214 13 31 6 34 88 -33z m181 -146 c68 -55 68 -70 1 -81 -50
-8 -89 26 -98 87 -4 25 -5 51 -3 57 4 14 9 11 100 -63z"/>
<path d="M1903 2123 c-155 -210 -293 -458 -347 -628 -69 -212 -71 -336 -10
-525 29 -88 94 -222 110 -227 15 -5 169 117 254 202 78 77 124 149 145 230 39
153 9 254 -142 473 -35 51 -61 91 -56 90 4 -1 26 1 49 5 81 14 115 72 115 200
0 75 -22 224 -36 247 -12 20 -26 8 -82 -67z m64 -26 c10 -60 11 -229 2 -256
-16 -46 -49 -61 -137 -65 -96 -3 -105 -1 -91 27 22 43 214 326 218 321 3 -2 6
-14 8 -27z m-152 -383 c40 -50 154 -225 160 -244 5 -15 1 -26 -12 -35 -10 -7
-81 -64 -158 -127 -179 -144 -244 -192 -253 -183 -13 12 -10 151 4 219 18 88
57 199 106 307 l39 85 49 -1 c37 -1 54 -6 65 -21z m205 -361 c22 -106 -7 -225
-76 -311 -44 -55 -68 -78 -186 -178 l-87 -75 -27 53 c-28 56 -67 156 -78 200
-5 24 -1 31 36 56 l43 29 26 -19 c42 -32 107 -34 149 -6 49 33 64 70 62 149
l-1 66 57 47 c31 25 60 46 64 46 4 0 12 -26 18 -57z m-178 -116 c3 -96 -74
-147 -145 -95 -16 12 -11 19 60 75 43 34 79 60 81 59 1 -2 3 -19 4 -39z"/>
<path d="M1328 1745 c-51 -29 -53 -37 -54 -375 -1 -173 -2 -325 -3 -338 -1
-16 -11 -27 -36 -38 -37 -15 -45 -31 -20 -40 26 -10 64 5 82 32 15 23 17 64
17 360 1 370 -1 359 67 373 43 9 46 35 4 38 -16 2 -42 -4 -57 -12z"/>
</g>
</svg>
