<?xml version="1.0" encoding="UTF-8"?>
<svg width="172px" height="43px" viewBox="0 0 172 43" version="1.1" xmlns="http://www.w3.org/2000/svg" xmlns:xlink="http://www.w3.org/1999/xlink">
    <!-- Generator: Sketch 53.2 (72643) - https://sketchapp.com -->
    <title>@IMKULIO</title>
    <desc>Created with Sketch.</desc>
    <g id="Page-1" stroke="none" stroke-width="1" fill="none" fill-rule="evenodd">
        <g id="Website" transform="translate(-946.000000, -3125.000000)" fill="#000000" fill-rule="nonzero">
            <path d="M957.656,3167.2 C955.541323,3167.2 953.678008,3166.758 952.066,3165.874 C950.453992,3164.99 949.206004,3163.73334 948.322,3162.104 C947.437996,3160.47466 946.996,3158.60268 946.996,3156.488 L946.996,3144.476 C946.996,3141.28665 947.975324,3138.73001 949.934,3136.806 C951.892676,3134.88199 954.466651,3133.92 957.656,3133.92 L960.464,3133.92 C962.613344,3133.92 964.329327,3134.56133 965.612,3135.844 C966.894673,3137.12667 967.536,3138.84266 967.536,3140.992 L967.536,3151.808 C967.536,3153.78401 966.912006,3155.36999 965.664,3156.566 C964.415994,3157.76201 962.769344,3158.36 960.724,3158.36 C958.505322,3158.36 956.728673,3157.70134 955.394,3156.384 C954.059327,3155.06666 953.392,3153.29868 953.392,3151.08 C953.426667,3148.82666 954.085327,3147.04134 955.368,3145.724 C956.650673,3144.40666 958.349323,3143.748 960.464,3143.748 L964.728,3143.748 L964.728,3140.992 C964.728,3139.67466 964.338004,3138.61734 963.558,3137.82 C962.777996,3137.02266 961.746673,3136.624 960.464,3136.624 L957.656,3136.624 C955.298655,3136.624 953.400674,3137.33466 951.962,3138.756 C950.523326,3140.17734 949.804,3142.08399 949.804,3144.476 L949.804,3156.488 C949.804,3158.91468 950.523326,3160.85599 951.962,3162.312 C953.400674,3163.76801 955.298655,3164.496 957.656,3164.496 L963.636,3164.496 C965.993345,3164.496 967.891326,3163.76801 969.33,3162.312 C970.768674,3160.85599 971.488,3158.91468 971.488,3156.488 L971.488,3136.104 C971.488,3133.71199 970.768674,3131.78801 969.33,3130.332 C967.891326,3128.87599 965.993345,3128.148 963.636,3128.148 L954.536,3128.148 C954.189332,3128.148 954.016,3127.97467 954.016,3127.628 L954.016,3125.964 C954.016,3125.61733 954.189332,3125.444 954.536,3125.444 L963.636,3125.444 C965.750677,3125.444 967.613992,3125.886 969.226,3126.77 C970.838008,3127.654 972.085996,3128.90199 972.97,3130.514 C973.854004,3132.12601 974.296,3133.98932 974.296,3136.104 L974.296,3156.488 C974.296,3158.60268 973.854004,3160.47466 972.97,3162.104 C972.085996,3163.73334 970.838008,3164.99 969.226,3165.874 C967.613992,3166.758 965.750677,3167.2 963.636,3167.2 L957.656,3167.2 Z M960.724,3155.656 C961.902673,3155.656 962.864663,3155.30067 963.61,3154.59 C964.355337,3153.87933 964.728,3152.95201 964.728,3151.808 L964.728,3146.452 L960.464,3146.452 C959.215994,3146.452 958.202004,3146.85933 957.422,3147.674 C956.641996,3148.48867 956.234667,3149.62399 956.2,3151.08 C956.2,3152.46667 956.615996,3153.576 957.448,3154.408 C958.280004,3155.24 959.371993,3155.656 960.724,3155.656 Z M980.276,3126.12 C980.276,3125.77333 980.449332,3125.6 980.796,3125.6 L982.876,3125.6 C983.222668,3125.6 983.396,3125.77333 983.396,3126.12 L983.396,3161.48 C983.396,3161.82667 983.222668,3162 982.876,3162 L980.796,3162 C980.449332,3162 980.276,3161.82667 980.276,3161.48 L980.276,3126.12 Z M1011.32,3125.08 C1013.81601,3125.08 1015.78333,3125.92932 1017.222,3127.628 C1018.66067,3129.32668 1019.38,3131.63199 1019.38,3134.544 L1019.38,3161.48 C1019.38,3161.82667 1019.20667,3162 1018.86,3162 L1016.78,3162 C1016.43333,3162 1016.26,3161.82667 1016.26,3161.48 L1016.26,3134.544 C1016.26,3132.42932 1015.83534,3130.80867 1014.986,3129.682 C1014.13666,3128.55533 1012.91467,3127.992 1011.32,3127.992 C1009.79466,3127.992 1008.59,3128.56399 1007.706,3129.708 C1006.822,3130.85201 1006.38,3132.46399 1006.38,3134.544 L1006.38,3161.48 C1006.38,3161.82667 1006.20667,3162 1005.86,3162 L1003.78,3162 C1003.43333,3162 1003.26,3161.82667 1003.26,3161.48 L1003.26,3134.544 C1003.26,3132.49866 1002.80067,3130.89534 1001.882,3129.734 C1000.96333,3128.57266 999.776007,3127.992 998.32,3127.992 C996.690659,3127.992 995.460004,3128.55533 994.628,3129.682 C993.795996,3130.80867 993.38,3132.42932 993.38,3134.544 L993.38,3161.48 C993.38,3161.82667 993.206668,3162 992.86,3162 L990.78,3162 C990.433332,3162 990.26,3161.82667 990.26,3161.48 L990.26,3134.544 C990.26,3131.59732 990.97066,3129.28334 992.392,3127.602 C993.81334,3125.92066 995.789321,3125.08 998.32,3125.08 C999.914675,3125.08 1001.206,3125.45266 1002.194,3126.198 C1003.182,3126.94334 1004.05733,3128.02666 1004.82,3129.448 C1005.58267,3128.06133 1006.46666,3126.98667 1007.472,3126.224 C1008.47734,3125.46133 1009.75999,3125.08 1011.32,3125.08 Z M1026.764,3162 C1026.41733,3162 1026.244,3161.82667 1026.244,3161.48 L1026.244,3126.12 C1026.244,3125.77333 1026.41733,3125.6 1026.764,3125.6 L1028.844,3125.6 C1029.19067,3125.6 1029.364,3125.77333 1029.364,3126.12 L1029.364,3142.084 L1034.668,3142.084 L1040.076,3126.016 C1040.18,3125.73867 1040.388,3125.6 1040.7,3125.6 L1042.78,3125.6 C1043.16134,3125.6 1043.3,3125.79066 1043.196,3126.172 L1037.58,3142.604 C1039.31334,3143.19334 1040.65666,3144.25933 1041.61,3145.802 C1042.56334,3147.34467 1043.04,3149.20799 1043.04,3151.392 L1043.04,3161.48 C1043.04,3161.82667 1042.86667,3162 1042.52,3162 L1040.44,3162 C1040.09333,3162 1039.92,3161.82667 1039.92,3161.48 L1039.92,3151.392 C1039.92,3149.48532 1039.426,3147.94267 1038.438,3146.764 C1037.45,3145.58533 1036.15867,3144.996 1034.564,3144.996 L1029.364,3144.996 L1029.364,3161.48 C1029.364,3161.82667 1029.19067,3162 1028.844,3162 L1026.764,3162 Z M1051.62,3125.6 C1051.96667,3125.6 1052.14,3125.77333 1052.14,3126.12 L1052.14,3153.16 C1052.14,3155.10134 1052.634,3156.66133 1053.622,3157.84 C1054.61,3159.01867 1055.93599,3159.608 1057.6,3159.608 C1059.26401,3159.608 1060.59,3159.01867 1061.578,3157.84 C1062.566,3156.66133 1063.06,3155.10134 1063.06,3153.16 L1063.06,3126.12 C1063.06,3125.77333 1063.23333,3125.6 1063.58,3125.6 L1065.66,3125.6 C1066.00667,3125.6 1066.18,3125.77333 1066.18,3126.12 L1066.18,3153.16 C1066.18,3155.89868 1065.39134,3158.14332 1063.814,3159.894 C1062.23666,3161.64468 1060.16535,3162.52 1057.6,3162.52 C1055.03465,3162.52 1052.96334,3161.64468 1051.386,3159.894 C1049.80866,3158.14332 1049.02,3155.89868 1049.02,3153.16 L1049.02,3126.12 C1049.02,3125.77333 1049.19333,3125.6 1049.54,3125.6 L1051.62,3125.6 Z M1085.524,3159.192 C1085.87067,3159.192 1086.044,3159.36533 1086.044,3159.712 L1086.044,3161.584 C1086.044,3161.93067 1085.87067,3162.104 1085.524,3162.104 L1080.844,3162.104 C1079.21466,3162.104 1077.76734,3161.714 1076.502,3160.934 C1075.23666,3160.154 1074.25734,3159.08801 1073.564,3157.736 C1072.87066,3156.38399 1072.524,3154.87601 1072.524,3153.212 L1072.524,3126.12 C1072.524,3125.77333 1072.69733,3125.6 1073.044,3125.6 L1075.124,3125.6 C1075.47067,3125.6 1075.644,3125.77333 1075.644,3126.12 L1075.644,3153.212 C1075.644,3154.91068 1076.12933,3156.33199 1077.1,3157.476 C1078.07067,3158.62001 1079.31866,3159.192 1080.844,3159.192 L1085.524,3159.192 Z M1090.464,3126.12 C1090.464,3125.77333 1090.63733,3125.6 1090.984,3125.6 L1093.064,3125.6 C1093.41067,3125.6 1093.584,3125.77333 1093.584,3126.12 L1093.584,3161.48 C1093.584,3161.82667 1093.41067,3162 1093.064,3162 L1090.984,3162 C1090.63733,3162 1090.464,3161.82667 1090.464,3161.48 L1090.464,3126.12 Z M1108.612,3162.468 C1106.87866,3162.468 1105.34467,3162.06067 1104.01,3161.246 C1102.67533,3160.43133 1101.63534,3159.29601 1100.89,3157.84 C1100.14466,3156.38399 1099.772,3154.72001 1099.772,3152.848 L1099.772,3134.752 C1099.772,3132.87999 1100.14466,3131.21601 1100.89,3129.76 C1101.63534,3128.30399 1102.67533,3127.16867 1104.01,3126.354 C1105.34467,3125.53933 1106.87866,3125.132 1108.612,3125.132 C1110.31068,3125.132 1111.83599,3125.53066 1113.188,3126.328 C1114.54001,3127.12534 1115.58866,3128.20866 1116.334,3129.578 C1117.07934,3130.94734 1117.452,3132.49866 1117.452,3134.232 L1117.452,3153.368 C1117.452,3155.10134 1117.07934,3156.65266 1116.334,3158.022 C1115.58866,3159.39134 1114.54001,3160.47466 1113.188,3161.272 C1111.83599,3162.06934 1110.31068,3162.468 1108.612,3162.468 Z M1108.612,3159.556 C1110.31068,3159.556 1111.68866,3158.97534 1112.746,3157.814 C1113.80334,3156.65266 1114.332,3155.17068 1114.332,3153.368 L1114.332,3134.232 C1114.332,3132.42932 1113.80334,3130.94734 1112.746,3129.786 C1111.68866,3128.62466 1110.31068,3128.044 1108.612,3128.044 C1106.91332,3128.044 1105.53534,3128.65066 1104.478,3129.864 C1103.42066,3131.07734 1102.892,3132.70666 1102.892,3134.752 L1102.892,3152.848 C1102.892,3154.89334 1103.42066,3156.52266 1104.478,3157.736 C1105.53534,3158.94934 1106.91332,3159.556 1108.612,3159.556 Z" id="@IMKULIO"></path>
        </g>
    </g>
</svg>