<?xml version="1.0" encoding="UTF-8"?>
<svg width="30px" height="22px" viewBox="0 0 30 22" version="1.1" xmlns="http://www.w3.org/2000/svg" xmlns:xlink="http://www.w3.org/1999/xlink">
    <!-- Generator: Sketch 53.2 (72643) - https://sketchapp.com -->
    <title>email</title>
    <desc>Created with Sketch.</desc>
    <g id="Page-1" stroke="none" stroke-width="1" fill="none" fill-rule="evenodd">
        <g id="Website" transform="translate(-1090.000000, -3339.000000)" fill="#000000" fill-rule="nonzero">
            <g id="Group-5" transform="translate(993.000000, 3337.000000)">
                <g id="email" transform="translate(97.000000, 2.000000)">
                    <path d="M26.25,0 L3.75,0 C1.6744898,0 0,1.67441213 0,3.74676499 L0,18.253235 C0,20.3225268 1.6744898,22 3.75,22 L26.25,22 C28.3163265,22 30,20.3255879 30,18.253235 L30,3.74676499 C30,1.67747322 28.3163265,0 26.25,0 Z M28.0010204,18.2501739 C28.0010204,19.2113538 27.2142857,19.994991 26.25,19.994991 L3.75,19.994991 C2.78571429,19.994991 1.99897959,19.2113538 1.99897959,18.2501739 L1.99897959,3.74676499 C1.99897959,2.78558508 2.78265306,2.00194796 3.75,2.00194796 L26.25,2.00194796 C27.2142857,2.00194796 28.0010204,2.78558508 28.0010204,3.74676499 L28.0010204,18.2501739 Z" id="Shape"></path>
                    <path d="M25.2447933,7.49458777 L15.4077456,14.066281 L5.5676933,7.49458777 C5.11099469,7.19247676 4.50707087,7.32640226 4.20961585,7.79981333 C3.91817003,8.27322441 4.04736766,8.90236281 4.50406627,9.20758837 L14.8759321,16.1343399 C15.0381803,16.243349 15.2214606,16.2962963 15.4077456,16.2962963 C15.591026,16.2962963 15.7773109,16.243349 15.9395591,16.1343399 L26.3054157,9.20758837 C26.7621144,8.90236281 26.8943166,8.27322441 26.5998662,7.79981333 C26.3054157,7.32640226 25.6954827,7.19247676 25.2447933,7.49458777 L25.2447933,7.49458777 Z" id="Path"></path>
                </g>
            </g>
        </g>
    </g>
</svg>