<?xml version="1.0" encoding="UTF-8"?>
<svg width="277px" height="54px" viewBox="0 0 277 54" version="1.1" xmlns="http://www.w3.org/2000/svg" xmlns:xlink="http://www.w3.org/1999/xlink">
    <!-- Generator: Sketch 53.2 (72643) - https://sketchapp.com -->
    <title>IMKCorne</title>
    <desc>Created with Sketch.</desc>
    <g id="Page-1" stroke="none" stroke-width="1" fill="none" fill-rule="evenodd">
        <g id="Website" transform="translate(-582.000000, -965.000000)" fill="#000000">
            <g id="IMKCorne" transform="translate(582.000000, 965.000000)">
                <path d="M0,1.27080395 C0,0.872118364 0.202051823,0.672778561 0.60616153,0.672778561 L2.87926727,0.672778561 C3.33389069,0.672778561 3.56119899,0.872118364 3.56119899,1.27080395 L3.56119899,52.4019746 C3.56119899,52.8006602 3.33389069,53 2.87926727,53 L0.60616153,53 C0.202051823,53 0,52.8006602 0,52.4019746 L0,1.27080395 Z M44.6286426,0 C48.1646025,8.70743023e-15 50.9554433,1.19603882 53.0012487,3.58815233 C55.0470541,5.98026584 56.0699415,9.16970268 56.0699415,13.1565585 L56.0699415,52.4019746 C56.0699415,52.8006602 55.8426332,53 55.3880098,53 L53.114904,53 C52.7107943,53 52.5087425,52.8006602 52.5087425,52.4019746 L52.5087425,13.1565585 C52.5087425,10.0667452 51.8268176,7.64975014 50.4629473,5.90550071 C49.0990771,4.16125127 47.1543283,3.28913963 44.6286426,3.28913963 C42.3050118,3.28913963 40.4234042,4.18616874 38.9837634,5.98025388 C37.5441225,7.77433901 36.8243129,10.1664166 36.8243129,13.1565585 L36.8243129,52.4019746 C36.8243129,52.8006602 36.6222611,53 36.2181514,53 L33.9450457,53 C33.5409359,53 33.3388841,52.8006602 33.3388841,52.4019746 L33.3388841,13.1565585 C33.3388841,10.1664166 32.6190745,7.77433901 31.1794337,5.98025388 C29.7397928,4.18616874 27.8581852,3.28913963 25.5345544,3.28913963 C23.0088688,3.28913963 21.06412,4.16125127 19.7002497,5.90550071 C18.3363794,7.64975014 17.6544545,10.0667452 17.6544545,13.1565585 L17.6544545,52.4019746 C17.6544545,52.8006602 17.4524027,53 17.048293,53 L14.7751873,53 C14.3205639,53 14.0932556,52.8006602 14.0932556,52.4019746 L14.0932556,13.1565585 C14.0932556,9.16970268 15.1161429,5.98026584 17.1619483,3.58815233 C19.2077537,1.19603882 21.9985945,8.70743023e-15 25.5345544,0 C29.7777064,8.70743023e-15 32.9600226,2.24257278 35.0815985,6.72778561 C37.2031745,2.24257278 40.3854907,8.70743023e-15 44.6286426,0 Z M67.2081596,53 C66.8040499,53 66.6019981,52.8006602 66.6019981,52.4019746 L66.6019981,1.27080395 C66.6019981,0.872118364 66.8040499,0.672778561 67.2081596,0.672778561 L69.4812653,0.672778561 C69.9358887,0.672778561 70.163197,0.872118364 70.163197,1.27080395 L70.163197,24.6685472 L78.4221479,24.6685472 L87.4388006,1.19605078 C87.4893143,1.04654368 87.5903403,0.921956305 87.7418814,0.822284908 C87.8934225,0.722613512 88.0449614,0.672778561 88.1965025,0.672778561 L90.4696083,0.672778561 C90.6716631,0.672778561 90.823202,0.73507225 90.9242294,0.859661495 C91.0252569,0.98425074 91.0252569,1.14621433 90.9242294,1.34555712 L81.7560363,25.1918195 C84.3827494,25.8895192 86.4916653,27.3845678 88.0828473,29.6770099 C89.6740292,31.969452 90.4696083,34.6605393 90.4696083,37.7503526 L90.4696083,52.4019746 C90.4696083,52.8006602 90.2675565,53 89.8634468,53 L87.590341,53 C87.1862313,53 86.9841795,52.8006602 86.9841795,52.4019746 L86.9841795,37.7503526 C86.9841795,34.9097178 86.1759722,32.5674751 84.5595334,30.7235543 C82.9430945,28.8796335 80.8720634,27.9576869 78.3463777,27.9576869 L70.163197,27.9576869 L70.163197,52.4019746 C70.163197,52.8006602 69.9358887,53 69.4812653,53 L67.2081596,53 Z" id="IMK" fill-rule="nonzero"></path>
                <path d="M139.151625,40.2013219 C137.517439,49.013433 129.983084,53.3244793 122.44873,53.3838601 C113.76712,53.5121226 105,47.7783123 105,36.1943053 C105,24.6625534 113.653107,19 122.337092,19 C129.928453,19 137.517439,23.3680519 139.151625,32.2537952 L132.94267,32.2537952 C131.479504,26.9475267 126.961742,24.3608989 122.391723,24.3608989 C116.783712,24.3608989 111.064063,28.2420282 111.064063,36.1943053 C111.064063,44.1988375 116.731456,48.0775916 122.44873,48.0775916 C127.023499,48.0775916 131.479504,45.4909638 132.94267,40.2013219 L139.151625,40.2013219 Z M160.798785,48.4886442 C166.84245,48.5609085 172.898018,44.4924295 172.898018,36.4927736 C172.898018,28.4858913 166.901959,24.4366827 160.965408,24.4366827 C154.916981,24.4366827 148.925683,28.4304886 148.925683,36.4927736 C148.925683,44.434618 154.859853,48.4308328 160.798785,48.4886442 Z M160.798785,54 C151.805886,54 142.877256,48.1152787 142.877256,36.4927736 C142.877256,24.812457 151.893958,19 160.965408,19 C169.98687,19 178.891697,24.8702684 178.891697,36.4927736 C178.891697,48.1851342 169.872614,54 160.798785,54 Z M189.368799,19.7398148 L189.368799,23.836912 C192.644749,19.3051286 197.654882,18.2412282 203.108303,19.4780424 L203.108303,24.8407729 C196.064402,22.7898227 189.368799,27.8355444 189.368799,35.1171381 L189.368799,53.3859649 L183.238267,53.3859649 L183.238267,19.7398148 L189.368799,19.7398148 Z M213.577006,19.5093323 L213.577006,23.6853744 C216.048392,20.0621147 219.644006,19 223.908405,19 C234.153509,19 238.501805,25.4402776 238.501805,35.1513858 L238.501805,53.3859649 L232.465967,53.3859649 L232.465967,35.2310444 C232.465967,28.8921505 230.845544,24.5664468 223.707051,24.445752 C217.179812,24.3178154 213.577006,29.0176732 213.577006,34.9655158 L213.577006,53.3859649 L207.454874,53.3859649 L207.454874,19.5093323 L213.577006,19.5093323 Z M270.410468,32.8397904 C269.226776,26.7547222 264.328491,24.3853578 259.391156,24.3853578 C254.395246,24.3853578 249.350524,26.8222804 248.047243,32.8397904 L270.410468,32.8397904 Z M276.819485,37.9066593 L247.810505,37.9066593 C247.810505,44.5370192 254.192676,48.5519096 259.332581,48.5519096 C263.584108,48.5519096 267.513475,46.725424 269.551376,42.9156211 L275.933547,42.9156211 C273.331867,50.3035985 266.302937,54 259.274007,54 C250.473201,54 241.606498,48.1031297 241.606498,36.4613953 C241.606498,24.8220736 250.351171,19 259.391156,19 C267.89909,19 276.22886,24.3153867 276.941515,34.9582242 C277.056224,35.9619468 276.995209,37.0308148 276.819485,37.9066593 Z" id="Corne"></path>
            </g>
        </g>
    </g>
</svg>