<?xml version="1.0" encoding="UTF-8"?>
<svg width="369px" height="67px" viewBox="0 0 369 67" version="1.1" xmlns="http://www.w3.org/2000/svg" xmlns:xlink="http://www.w3.org/1999/xlink">
    <!-- Generator: Sketch 53.2 (72643) - https://sketchapp.com -->
    <title>IMKxCorne</title>
    <desc>Created with Sketch.</desc>
    <defs>
        <polygon id="path-1" points="0.000529016976 0.339862563 66.9724336 0.339862563 66.9724336 57.9998661 0.000529016976 57.9998661"></polygon>
    </defs>
    <g id="Page-1" stroke="none" stroke-width="1" fill="none" fill-rule="evenodd">
        <g id="Website" transform="translate(-535.000000, -113.000000)">
            <g id="IMKxCorne" transform="translate(536.000000, 114.000000)">
                <g id="Group">
                    <g id="wolf" stroke="#000000" stroke-width="2">
                        <path d="M18.48,59 L13.4693878,54.4111111 L0,46.1074074 C1.40551105,37.2959447 2.4531301,30.2305126 3.14285714,24.9111111 C3.83258419,19.5917096 4.28156378,11.2880059 4.48979592,0 C6.7475218,0.921007106 8.24412044,1.43088365 8.97959184,1.52962963 C9.71506324,1.62837561 10.7626823,1.77405462 12.122449,1.96666667 C14.576879,4.87231244 16.3727973,7.13033713 17.5102041,8.74074074 C18.6476108,10.3511444 20.1442095,12.7548481 22,15.9518519" id="Path-3" stroke-linecap="round" stroke-linejoin="round"></path>
                        <path d="M52.48,59 L47.4693878,54.4111111 L34,46.1074074 C35.4055111,37.2959447 36.4531301,30.2305126 37.1428571,24.9111111 C37.8325842,19.5917096 38.2815638,11.2880059 38.4897959,0 C40.7475218,0.921007106 42.2441204,1.43088365 42.9795918,1.52962963 C43.7150632,1.62837561 44.7626823,1.77405462 46.122449,1.96666667 C48.576879,4.87231244 50.3727973,7.13033713 51.5102041,8.74074074 C52.6476108,10.3511444 54.1442095,12.7548481 56,15.9518519" id="Path-3" stroke-linecap="round" stroke-linejoin="round" transform="translate(45.000000, 29.500000) scale(-1, 1) translate(-45.000000, -29.500000) "></path>
                        <path d="M28,65 L28,65 L28,65 C33.3108153,65 37.7287423,60.9161828 38.1455177,55.6217463 C38.2134288,54.7588725 38.3006207,54.1134219 38.4070796,53.6853933 C38.9333064,51.5696462 40.5223411,50.775503 41.8053097,49.6292135 C43.0882784,48.482924 44.7245501,47.1386167 45.6283186,46.6404494 C46.532087,46.1422822 46.9026549,46 48.3893805,46 C49.380531,46 50.5840708,46.6404494 52,47.9213483" id="Path-5" stroke-linecap="round" stroke-linejoin="round"></path>
                        <path d="M3,65 L3,65 L3,65 C8.61371029,65 13.3121087,60.7420939 13.8629673,55.1554761 C13.9253951,54.5224943 14.0007736,54.0324662 14.0891166,53.6853933 C14.6276528,51.5696462 16.2538578,50.775503 17.5668374,49.6292135 C18.8798171,48.482924 20.5543642,47.1386167 21.4792734,46.6404494 C22.4041826,46.1422822 22.7834187,46 24.3049216,46 C25.3192568,46 26.5509496,46.6404494 28,47.9213483" id="Path-5" stroke-linecap="round" stroke-linejoin="round" transform="translate(15.500000, 55.500000) scale(-1, 1) translate(-15.500000, -55.500000) "></path>
                        <path d="M15.4331009,21.0574713 C13.5790297,23.0831449 10.8628315,27.4068997 10.2866202,28.5 C9.42230318,30.1396504 9,31.9022989 9,33.1781609 C9,34.454023 9.22450436,37.1920394 11.144367,39.7701149 C12.4242754,41.488832 15.1404736,43.8987936 19.2929615,47 C20.7362928,44.2484349 21.6655185,42.1219982 22.0806386,40.6206897 C22.7033188,38.3687269 23.173452,36.1551724 22.9383854,33.816092 C22.7033188,31.4770115 21.6236179,27.2523566 19.2929615,22.545977 C17.7391906,19.4083906 15.0229924,15.2263983 11.144367,10 C10.6698021,12.0307606 10.3838865,13.6610288 10.2866202,14.8908046 C10.1407207,16.7354682 10.2866202,18.9310345 11.144367,19.9942529 C11.7161982,20.7030651 12.7169028,21.0574713 14.1464808,21.0574713 L18.4352147,21.0574713" id="Path-7" stroke-linecap="round" stroke-linejoin="round"></path>
                        <path d="M10,29 L19,36.5081779 C18.6573889,36.9084179 18.3783192,37.1944437 18.1627907,37.3662553 C17.839498,37.6239728 16.2790698,38.6533715 14.6046512,37.3662553 C13.4883721,36.5081779 13.2093023,34.8635294 13.7674419,32.4323099" id="Path-9" stroke-linecap="round" stroke-linejoin="round"></path>
                        <path d="M19,36.0676692 L22.5555556,38.6390977" id="Path-12"></path>
                        <path d="M39.4331009,21.0574713 C37.5790297,23.0831449 34.8628315,27.4068997 34.2866202,28.5 C33.4223032,30.1396504 33,31.9022989 33,33.1781609 C33,34.454023 33.2245044,37.1920394 35.144367,39.7701149 C36.4242754,41.488832 39.1404736,43.8987936 43.2929615,47 C44.7362928,44.2484349 45.6655185,42.1219982 46.0806386,40.6206897 C46.7033188,38.3687269 47.173452,36.1551724 46.9383854,33.816092 C46.7033188,31.4770115 45.6236179,27.2523566 43.2929615,22.545977 C41.7391906,19.4083906 39.0229924,15.2263983 35.144367,10 C34.6698021,12.0307606 34.3838865,13.6610288 34.2866202,14.8908046 C34.1407207,16.7354682 34.2866202,18.9310345 35.144367,19.9942529 C35.7161982,20.7030651 36.7169028,21.0574713 38.1464808,21.0574713 L42.4352147,21.0574713" id="Path-7" stroke-linecap="round" stroke-linejoin="round" transform="translate(40.000000, 28.500000) scale(-1, 1) translate(-40.000000, -28.500000) "></path>
                        <path d="M37,29 L46,36.5081779 C45.6573889,36.9084179 45.3783192,37.1944437 45.1627907,37.3662553 C44.839498,37.6239728 43.2790698,38.6533715 41.6046512,37.3662553 C40.4883721,36.5081779 40.2093023,34.8635294 40.7674419,32.4323099" id="Path-9" stroke-linecap="round" stroke-linejoin="round" transform="translate(41.500000, 33.500000) scale(-1, 1) translate(-41.500000, -33.500000) "></path>
                        <path d="M33,36.0676692 L36.5555556,38.6390977" id="Path-12" transform="translate(35.000000, 37.500000) scale(-1, 1) translate(-35.000000, -37.500000) "></path>
                        <path d="M22,16.5 L35,16.5" id="Path-15" stroke-linecap="round" stroke-linejoin="round"></path>
                        <path d="M26,21 C27.969697,21 28.9545455,21.8148148 28.9545455,23.4444444 C28.9545455,25.8888889 28.9545472,37.7777778 28.9545455,39.8888889 C28.9545443,41.2962963 29.6363625,42 31,42" id="Path-14" stroke-linecap="round" stroke-linejoin="round" transform="translate(28.500000, 31.500000) scale(-1, 1) translate(-28.500000, -31.500000) "></path>
                        <path d="M28,48 C28,48 28,48 28,48 C28,48 28,48 28,48 L28,48 C30.7614248,48 33.0000019,50.2385771 33.0000019,53.0000019 L33,54.1904678 C33,56.2944143 31.2944143,58 29.1904678,58 L26.8095322,58 C24.7055866,58 23.0000017,56.2944151 23.0000017,54.1904695 C23.0000017,54.190469 23.0000017,54.1904684 23.0000017,54.1904678 L22.9999988,52.999999 C23,50.2385754 25.2385764,48 28,48 Z" id="Rectangle"></path>
                        <path d="M23,63 C25.005698,63 26.8054538,61.3333333 28.3992674,58 C30.2706553,61.0651341 32.1375661,62.7318008 34,63" id="Path-11" stroke-linecap="round" stroke-linejoin="round"></path>
                    </g>
                    <text id="IMK" font-family="Phenomena-Light, Phenomena" font-size="52" font-weight="300" fill="#000000">
                        <tspan x="75.472" y="54">IMK</tspan>
                    </text>
                </g>
                <g id="Corne" transform="translate(197.000000, 0.000000)">
                    <g id="Group-3">
                        <mask id="mask-2" fill="white">
                            <use xlink:href="#path-1"></use>
                        </mask>
                        <g id="Clip-2"></g>
                        <path d="M65.6224398,37.9237909 C65.6819542,40.4878622 63.3146032,48.3983232 57.3830004,48.3983232 C55.687501,48.3983232 54.0700316,47.5735358 53.1561548,46.1823765 C52.259471,44.8126403 51.9129649,43.128253 51.9129649,41.2162458 C51.9275128,37.0534796 53.5767233,31.5919409 57.0219463,25.4020186 C60.378559,19.419632 62.2354086,14.2017806 62.2063127,10.2974298 C62.2063127,8.24215601 61.7394552,6.57115816 60.783257,5.13313597 C59.8085432,3.6991306 58.2796842,2.43918751 55.9440742,1.41489796 C54.2353494,0.674463815 52.5874615,0.339728669 51.0308291,0.339728669 C47.6583458,0.339728669 44.437955,1.8714767 41.5759732,4.59220397 C38.6981208,7.31694807 36.226289,11.2079094 34.5030162,15.6438196 C33.1407975,19.1170315 31.101437,26.3821231 31.101437,33.8614452 C31.101437,36.886112 31.4638137,39.9255071 32.2427912,42.7935179 C24.7069443,32.0619091 28.5409949,17.6013507 31.7031938,10.9106646 C30.5036478,10.4246292 29.2750059,10.1742473 28.0172681,10.1742473 C27.9432057,10.1742473 27.8651757,10.1742473 27.8069838,10.1822809 C24.0337702,10.2679731 20.4959692,12.6017466 17.7993052,16.7203278 C15.1171891,20.8295365 13.4097868,26.6258103 13.4243348,33.055403 L13.4243348,33.866801 C13.5129451,38.5169416 14.504852,42.8082462 16.0773549,46.3885733 C12.3464627,42.0276438 8.33122385,34.3970214 10.2634583,23.409675 C9.77015002,23.2864924 9.29006711,23.2262401 8.80998421,23.2262401 L8.77824319,23.2262401 C8.48067114,23.2262401 8.19500197,23.2423074 7.89610738,23.2945261 C5.73904066,23.6078382 3.83590209,25.031132 2.35068693,27.4733597 C0.899857876,29.9008589 0.000529016976,33.2749892 0.000529016976,37.0307176 C0.000529016976,38.1621224 0.0745913936,39.320306 0.239909199,40.5039295 C0.839020924,44.7497101 2.48823135,48.4505418 4.58578366,50.9998847 C6.68069088,53.5639559 9.15516779,54.8975408 11.4775523,54.8975408 C14.7587801,54.8975408 17.545377,52.9721442 19.1773944,51.5997301 C21.8740584,55.0033171 25.1989301,56.8858675 28.6309278,56.8858675 C32.1660837,56.8858675 35.8083656,54.7850698 38.3238413,52.8663679 C40.0629846,54.3981159 42.1750849,55.7156335 44.781816,56.7492956 C46.9851717,57.6209459 49.050983,57.9998661 50.9845401,57.9998661 C69.5318752,57.9998661 67.8998579,40.4115426 65.6224398,37.9237909" id="Fill-1" fill="#000000" mask="url(#mask-2)"></path>
                    </g>
                    <path d="M95,46.714812 C94.0908332,51.583953 89.8991515,53.9660261 85.7074697,53.998837 C80.8775212,54.0697086 76,50.9014858 76,44.5007309 C76,38.1288496 80.814091,35 85.645361,35 C89.8687578,35 94.0908332,37.4135715 95,42.3233981 L91.5456948,42.3233981 C90.7316734,39.391414 88.2182501,37.9621701 85.6757546,37.9621701 C82.5557797,37.9621701 79.3736959,40.1066921 79.3736959,44.5007309 C79.3736959,48.9236434 82.5267075,51.0668529 85.7074697,51.0668529 C88.2526082,51.0668529 90.7316734,49.6376091 91.5456948,46.714812 L95,46.714812 Z" id="Fill-4" fill="#000000"></path>
                    <path d="M106.952412,50.8506538 C110.308658,50.8919477 113.671514,48.5671025 113.671514,43.9958706 C113.671514,39.4205093 110.341705,37.1066758 107.044944,37.1066758 C103.686054,37.1066758 100.35889,39.3888507 100.35889,43.9958706 C100.35889,48.5340674 103.654329,50.8176187 106.952412,50.8506538 M106.952412,54 C101.958361,54 97,50.6373021 97,43.9958706 C97,37.321404 102.00727,34 107.044944,34 C112.054858,34 117,37.3544391 117,43.9958706 C117,50.6772195 111.991408,54 106.952412,54" id="Fill-6" fill="#000000"></path>
                    <path d="M123.393847,35.4087854 L123.393847,37.6726407 C125.207404,35.1685991 127.981,34.5807399 131,35.2641428 L131,38.227325 C127.100515,37.0940704 123.393847,39.8820891 123.393847,43.9055411 L123.393847,54 L120,54 L120,35.4087854 L123.393847,35.4087854 Z" id="Fill-8" fill="#000000"></path>
                    <path d="M135.352224,35.2814321 L135.352224,37.5889084 C136.705451,35.5868726 138.674259,35 141.009265,35 C146.619055,35 149,38.558582 149,43.9244647 L149,54 L145.695028,54 L145.695028,43.9684802 C145.695028,40.4659179 144.807752,38.0757459 140.899012,38.0090558 C137.324969,37.9383643 135.352224,40.5352755 135.352224,43.821762 L135.352224,54 L132,54 L132,35.2814321 L135.352224,35.2814321 Z" id="Fill-10" fill="#000000"></path>
                    <path d="M167.276417,41.9084517 C166.607542,38.4312698 163.839641,37.0773473 161.049674,37.0773473 C158.226608,37.0773473 155.375959,38.4698745 154.639507,41.9084517 L167.276417,41.9084517 Z M170.897996,44.8038053 L154.505732,44.8038053 C154.505732,48.5925824 158.112141,50.8868055 161.016575,50.8868055 C163.419008,50.8868055 165.639397,49.8430994 166.790965,47.6660692 L170.397374,47.6660692 C168.927228,51.8877706 164.955352,54 160.983476,54 C156.010356,54 151,50.6303599 151,43.9779402 C151,37.3268992 155.9414,34 161.049674,34 C165.857299,34 170.564248,37.0373638 170.966952,43.1189852 C171.031771,43.692541 170.997292,44.3033228 170.897996,44.8038053 L170.897996,44.8038053 Z" id="Fill-12" fill="#000000"></path>
                </g>
                <path d="M171,38 L181.875,26 L171,38 L159.562367,26.5626333 L171,38 Z M171,38 L160.125,50 L171,38 L182.437633,49.4373667 L171,38 Z" id="Cross" stroke="#000000" stroke-width="2" stroke-linecap="square"></path>
            </g>
        </g>
    </g>
</svg>