<?xml version="1.0" encoding="UTF-8"?>
<svg width="29px" height="26px" viewBox="0 0 29 26" version="1.1" xmlns="http://www.w3.org/2000/svg" xmlns:xlink="http://www.w3.org/1999/xlink">
    <!-- Generator: Sketch 53.2 (72643) - https://sketchapp.com -->
    <title>reddit</title>
    <desc>Created with Sketch.</desc>
    <g id="Page-1" stroke="none" stroke-width="1" fill="none" fill-rule="evenodd">
        <g id="Website" transform="translate(-993.000000, -3337.000000)" fill-rule="nonzero">
            <g id="Group-5" transform="translate(993.000000, 3337.000000)">
                <g id="reddit">
                    <path d="M29,11.7548379 C29,9.71993183 27.3695012,8.07038995 25.3581703,8.07038995 C24.3508514,8.07038995 23.4408495,8.48586502 22.7817663,9.15472186 C20.745195,7.82581613 18.1433482,6.97895707 15.2857911,6.84683805 C15.2875458,5.61932599 15.8309554,4.4750455 16.7775355,3.70677507 C17.7258028,2.93720735 18.9504991,2.64900353 20.1367274,2.91556305 L20.2996423,2.95216036 C20.2980226,2.99346889 20.293501,3.03395808 20.293501,3.07567629 C20.293501,4.77431045 21.6545895,6.15135257 23.3335443,6.15135257 C25.0124992,6.15135257 26.3735877,4.77431045 26.3735877,3.07567629 C26.3735877,1.37697384 25.0124992,0 23.3335443,0 C22.2539463,0 21.3082435,0.570945369 20.7688831,1.42900211 L20.4775395,1.36352296 C18.82342,0.991677893 17.1161879,1.39370209 15.7942421,2.46663148 C14.4739161,3.53826357 13.7161661,5.13454817 13.7144114,6.84683805 C10.8575292,6.97888879 8.25615475,7.82533818 6.21978595,9.1536294 C5.56063522,8.48463601 4.64928358,8.07032167 3.64176222,8.07032167 C1.63049878,8.07038995 0,9.71993183 0,11.7548379 C0,13.1726424 0.792978504,14.4009738 1.95349411,15.0169147 C1.86535539,15.4730155 1.81899146,15.9393581 1.81899146,16.4140307 C1.81899146,21.7082142 7.4964476,26 14.4999663,26 C21.5034849,26 27.1809411,21.7082142 27.1809411,16.4140307 C27.1809411,15.9396312 27.1345771,15.4734935 27.0465734,15.0175975 C28.2071565,14.40152 29,13.1727789 29,11.7548379 Z M23.3335443,1.58986641 C24.1433947,1.58986641 24.802208,2.25640177 24.802208,3.07574456 C24.802208,3.89501908 24.1433947,4.56155444 23.3335443,4.56155444 C22.5236939,4.56155444 21.8648807,3.89501908 21.8648807,3.07574456 C21.8648807,2.25640177 22.5237614,1.58986641 23.3335443,1.58986641 Z M1.5713797,11.7548379 C1.5713797,10.5998377 2.50014312,9.66018808 3.64176222,9.66018808 C4.13070939,9.66018808 4.57950148,9.83347908 4.93360856,10.1216146 C3.82600318,11.0829768 2.96850659,12.2130554 2.43609745,13.4538818 C1.91320405,13.0739115 1.5713797,12.4546932 1.5713797,11.7548379 Z M22.5262585,21.918717 C20.4009411,23.5253117 17.5504702,24.4101336 14.5000337,24.4101336 C11.4495973,24.4101336 8.59912639,23.5253117 6.47380902,21.918717 C4.48549134,20.4157009 3.39043865,18.460749 3.39043865,16.4140307 C3.39043865,14.3672441 4.48549134,12.4122922 6.47380902,10.9092762 C8.59912639,9.30268151 11.4495973,8.41785957 14.5000337,8.41785957 C17.5504702,8.41785957 20.4009411,9.30268151 22.5262585,10.9092762 C24.5145761,12.4122922 25.6096288,14.3672441 25.6096288,16.4140307 C25.6095614,18.460749 24.5145761,20.4157009 22.5262585,21.918717 Z M26.5634301,13.4529259 C26.030886,12.2123043 25.1734569,11.0825672 24.066054,10.1213415 C24.4201611,9.83320597 24.8692231,9.66018808 25.3582378,9.66018808 C26.4998569,9.66018808 27.4286203,10.5998377 27.4286203,11.7548379 C27.4285528,12.454625 27.0863235,13.0730922 26.5634301,13.4529259 Z" id="Shape" fill="#181A1C"></path>
                    <g id="Group" transform="translate(8.055556, 13.000000)" fill="#000000">
                        <ellipse id="Oval" cx="1.72903073" cy="1.62955" rx="1.68446809" ry="1.59705"></ellipse>
                        <ellipse id="Oval" cx="11.1392908" cy="1.62955" rx="1.68446809" ry="1.59705"></ellipse>
                    </g>
                    <path d="M18.8581211,18.5260913 C17.7195622,19.6533928 16.243577,20.2741945 14.7019866,20.2741945 C12.9710089,20.2741945 11.3672317,19.5160878 10.1861412,18.1395369 C9.89795165,17.8034896 9.41366969,17.7852013 9.10451019,18.0984597 C8.79535069,18.4116466 8.77845637,18.9380064 9.06671161,19.2739108 C10.5191631,20.9666491 12.5731707,21.9375 14.7020524,21.9375 C16.6259014,21.9375 18.467974,21.1626052 19.8890034,19.7555501 C20.201384,19.4462208 20.2239974,18.9201468 19.9392919,18.5806704 C19.6547179,18.2414084 19.1709619,18.2165478 18.8581211,18.5260913 Z" id="Path" fill="#181A1C"></path>
                </g>
            </g>
        </g>
    </g>
</svg>