<?xml version="1.0" encoding="UTF-8"?>
<svg width="27px" height="22px" viewBox="0 0 27 22" version="1.1" xmlns="http://www.w3.org/2000/svg" xmlns:xlink="http://www.w3.org/1999/xlink">
    <!-- Generator: Sketch 53.2 (72643) - https://sketchapp.com -->
    <title>twitter</title>
    <desc>Created with Sketch.</desc>
    <g id="Page-1" stroke="none" stroke-width="1" fill="none" fill-rule="evenodd">
        <g id="Website" transform="translate(-1043.000000, -3339.000000)" fill="#010002" fill-rule="nonzero">
            <g id="Group-5" transform="translate(993.000000, 3337.000000)">
                <path d="M77,4.60294618 C76.0062484,5.0446553 74.9399672,5.34421738 73.8196419,5.47795598 C74.9635702,4.79080864 75.8392187,3.70089657 76.2542341,2.40617237 C75.1812029,3.04251497 73.9967745,3.5045814 72.734743,3.75506468 C71.7241384,2.67360531 70.2866508,2 68.6922364,2 C65.6333785,2 63.1532127,4.48788318 63.1532127,7.55457748 C63.1532127,7.98951559 63.2021392,8.41431931 63.2966394,8.82053593 C58.6940142,8.58863974 54.6127281,6.37664221 51.8811795,3.01543091 C51.4036935,3.83459091 51.1320607,4.78908269 51.1320607,5.8079655 C51.1320607,7.73566892 52.1106358,9.43656549 53.5953735,10.4316834 C52.6876515,10.4012359 51.8339295,10.1507526 51.0865312,9.73440162 L51.0865312,9.80379346 C51.0865312,12.4947628 52.9964314,14.7406154 55.5288767,15.2517606 C55.0648906,15.3770023 54.5756251,15.4463941 54.0694625,15.4463941 C53.7118002,15.4463941 53.3659173,15.4108574 53.0267844,15.3431472 C53.7320061,17.5517814 55.7769065,19.1578837 58.1997193,19.2019174 C56.3049956,20.6912751 53.9159329,21.5764193 51.321061,21.5764193 C50.873972,21.5764193 50.4335889,21.5493353 50,21.5002565 C52.4514893,23.079319 55.3618911,24 58.4899256,24 C68.6788246,24 74.2482455,15.5344173 74.2482455,8.19264603 L74.2296719,7.47336956 C75.3178796,6.69479139 76.2593076,5.71657893 77,4.60294618 Z" id="twitter"></path>
            </g>
        </g>
    </g>
</svg>